<svg height="512" viewBox="0 0 512 512" width="512" xmlns="http://www.w3.org/2000/svg"><g id="Filledotuline"><path d="m328 272-24-32a24.721 24.721 0 0 1 35.777-22.111l28.223 14.111 28.223-14.111a24.721 24.721 0 0 1 35.777 22.111l-24 32v32l54.751 88.97a62.353 62.353 0 0 1 9.249 32.678 62.352 62.352 0 0 1 -62.352 62.352h-83.3a62.352 62.352 0 0 1 -62.348-62.352 62.353 62.353 0 0 1 9.249-32.678l54.751-88.97z" fill="#eaae48"/><path d="m328 272h80v32h-80z" fill="#b0792c"/><path d="m312 368v120h-288v-120a79.954 79.954 0 0 1 72.72-79.67c2.4-.22 4.82-.33 7.28-.33h128c2.46 0 4.88.11 7.28.33a79.954 79.954 0 0 1 72.72 79.67z" fill="#676768"/><path d="m248 344-40 16 16 32-56 40-56-40 16-32-40-16v-54.39a80.3 80.3 0 0 1 8.72-1.28c2.4-.22 4.82-.33 7.28-.33h128c2.46 0 4.88.11 7.28.33a80.3 80.3 0 0 1 8.72 1.28z" fill="#b3b1b3"/><path d="m239.28 288.33-71.28 143.67-71.28-143.67c2.4-.22 4.82-.33 7.28-.33h128c2.46 0 4.88.11 7.28.33z" fill="#e4e4e3"/><path d="m152 352-8-24 24-24 24 24-8 24z" fill="#0093b9"/><path d="m152 400v-48h32v48l-16 32z" fill="#067a98"/><path d="m264 152h16a24 24 0 0 1 24 24 24 24 0 0 1 -24 24h-16z" fill="#e99180"/><path d="m72 152h-16a24 24 0 0 0 -24 24 24 24 0 0 0 24 24h16z" fill="#e99180"/><path d="m183.122 304h-30.244a88.878 88.878 0 0 1 -67.478-31.037 88.876 88.876 0 0 1 -21.4-57.841v-87.122a104 104 0 0 1 104-104 104 104 0 0 1 104 104v87.122a88.876 88.876 0 0 1 -21.4 57.841 88.878 88.878 0 0 1 -67.478 31.037z" fill="#f8caa8"/><path d="m160 216h8a16.019 16.019 0 0 0 16-16v-32h40a8 8 0 0 0 0-16h-40a16.019 16.019 0 0 0 -16 16v32h-8a8 8 0 0 0 0 16z"/><path d="m112 168h32a8 8 0 0 0 0-16h-32a8 8 0 0 0 0 16z"/><path d="m176 264h-16a8 8 0 0 0 0 16h16a8 8 0 0 0 0-16z"/><circle cx="128" cy="184" r="8"/><circle cx="208" cy="184" r="8"/><path d="m252.742 282.482q2.024-2.093 3.935-4.313a96.938 96.938 0 0 0 23.323-63.047v-7.122a32 32 0 0 0 0-64v-16a112 112 0 0 0 -224 0v16a32 32 0 0 0 0 64v7.122a96.938 96.938 0 0 0 23.323 63.047q1.907 2.225 3.935 4.313a88 88 0 0 0 -67.258 85.518v120h16v-120a72.032 72.032 0 0 1 48-67.888v43.888a8 8 0 0 0 5.029 7.428l31.928 12.772-12.112 24.223a8 8 0 0 0 2.5 10.088l52.655 37.606v51.883h16v-51.883l52.65-37.607a8 8 0 0 0 2.5-10.088l-12.107-24.222 31.928-12.771a8 8 0 0 0 5.029-7.429v-43.888a72.032 72.032 0 0 1 48 67.888v120h16v-120a88 88 0 0 0 -67.258-85.518zm-60.742 83.144v-12.326l7.589-22.768a8 8 0 0 0 -1.932-8.187l-10.438-10.445a96.772 96.772 0 0 0 35.607-8.411zm-78.826-62.132a96.772 96.772 0 0 0 35.607 8.411l-10.438 10.438a8 8 0 0 0 -1.932 8.187l7.589 22.77v12.328zm65.06 40.506h-20.468l-4.613-13.839 14.847-14.848 14.847 14.848zm-18.234 16h16v37.875l-8 16.125-8-16.125zm136-184a16.019 16.019 0 0 1 -16 16v-32a16.019 16.019 0 0 1 16 16zm-256 0a16.019 16.019 0 0 1 16-16v32a16.019 16.019 0 0 1 -16-16zm32 39.122v-87.122a96 96 0 0 1 192 0v87.122a80.878 80.878 0 0 1 -80.878 80.878h-30.244a80.878 80.878 0 0 1 -80.878-80.878zm24 89.757 20.863 42.05-20.863-8.345zm34.12 68.77 16.493 33.243-24.4-17.428zm59.267 33.243 16.493-33.243 7.908 15.815zm29.75-59.963 20.863-42.05v33.7z"/><path d="m64 392h16v96h-16z"/><path d="m256 392h16v96h-16z"/><path d="m192 448h16v16h-16z"/><path d="m469.564 388.777-53.564-87.041v-27.07l22.4-29.866a8 8 0 0 0 1.6-4.8 32.722 32.722 0 0 0 -47.354-29.267l-24.646 12.323-24.646-12.323a32.722 32.722 0 0 0 -47.354 29.267 8 8 0 0 0 1.6 4.8l22.4 29.866v27.07l-8.66 14.072 13.627 8.384 7.503-12.192h71.06l52.407 85.162a54.352 54.352 0 0 1 -46.289 82.838h-73.648v16h73.648a70.352 70.352 0 0 0 59.916-107.223zm-149.633-163a16.618 16.618 0 0 1 16.268-.732l28.223 14.111a8 8 0 0 0 7.156 0l28.222-14.112a16.727 16.727 0 0 1 24.025 12.521l-19.825 26.435h-72l-19.826-26.435a16.6 16.6 0 0 1 7.757-11.789zm16.069 70.223v-16h64v16z"/><path d="m344 416v1.167a22.874 22.874 0 0 0 16 21.788v9.045h16v-9.045a22.834 22.834 0 0 0 3.378-42.21l-15.6-7.8a6.833 6.833 0 0 1 3.055-12.945h2.334a6.84 6.84 0 0 1 6.833 6.833v1.167h16v-1.167a22.874 22.874 0 0 0 -16-21.788v-9.045h-16v9.045a22.834 22.834 0 0 0 -3.378 42.21l15.6 7.8a6.833 6.833 0 0 1 -3.055 12.945h-2.334a6.84 6.84 0 0 1 -6.833-6.833v-1.167z"/><path d="m408 392h16v16h-16z"/></g></svg>