<?xml version="1.0" encoding="iso-8859-1"?>
<!-- Generator: Adobe Illustrator 19.0.0, SVG Export Plug-In . SVG Version: 6.00 Build 0)  -->
<svg version="1.1" id="Capa_1" xmlns="http://www.w3.org/2000/svg" xmlns:xlink="http://www.w3.org/1999/xlink" x="0px" y="0px"
	 viewBox="0 0 512 512" style="enable-background:new 0 0 512 512;" xml:space="preserve">
<rect x="42.667" y="157.867" style="fill:#C6E2F7;" width="426.667" height="307.2"/>
<path style="fill:#DD352E;" d="M392.533,140.8H486.4V55.433c0-9.404-7.629-17.033-17.033-17.033h-76.834V140.8z"/>
<rect x="392.533" y="123.733" style="fill:#EBBA16;" width="110.933" height="42.667"/>
<path style="fill:#DD352E;" d="M119.467,140.8H25.6V55.433c0-9.404,7.629-17.033,17.033-17.033h76.834V140.8z"/>
<rect x="8.533" y="123.733" style="fill:#EBBA16;" width="110.933" height="42.667"/>
<rect x="93.867" y="260.267" style="fill:#61B872;" width="324.267" height="204.8"/>
<polygon style="fill:#DD352E;" points="435.2,260.267 76.8,260.267 93.867,200.533 418.133,200.533 "/>
<rect x="8.533" y="465.067" style="fill:#E7ECED;" width="494.933" height="34.133"/>
<rect x="128" y="294.4" style="fill:#C6E2F7;" width="136.533" height="136.533"/>
<rect x="298.667" y="294.4" style="fill:#EBBA16;" width="85.333" height="170.667"/>
<rect x="110.933" y="12.8" style="fill:#1081E0;" width="290.133" height="153.6"/>
<path style="fill:#E7ECED;" d="M247.467,132.267L247.467,132.267c-23.561,0-42.667-19.106-42.667-42.667V46.933h85.333V89.6
	C290.133,113.161,271.027,132.267,247.467,132.267z"/>
<g>
	<path style="fill:#AFB6BB;" d="M290.133,89.6L290.133,89.6V46.933H332.8l0,0C332.8,70.494,313.694,89.6,290.133,89.6z"/>
	<rect x="256" y="465.067" style="fill:#AFB6BB;" width="170.667" height="34.133"/>
</g>
<rect x="170.667" y="294.4" style="fill:#7383BF;" width="51.2" height="34.133"/>
<path style="fill:#B02721;" d="M324.267,234.667c-4.71,0-8.533,3.823-8.533,8.533v17.067H332.8V243.2
	C332.8,238.49,328.977,234.667,324.267,234.667z"/>
<g>
	<path style="fill:#4D007E;" d="M110.933,174.933H8.533C3.823,174.933,0,171.11,0,166.4v-42.667c0-4.71,3.823-8.533,8.533-8.533
		h102.4c4.71,0,8.533,3.823,8.533,8.533V166.4C119.467,171.11,115.644,174.933,110.933,174.933z M17.067,157.867H102.4v-25.6H17.067
		V157.867z"/>
	<path style="fill:#4D007E;" d="M503.467,174.933h-102.4c-4.71,0-8.533-3.823-8.533-8.533v-42.667c0-4.71,3.823-8.533,8.533-8.533
		h102.4c4.71,0,8.533,3.823,8.533,8.533V166.4C512,171.11,508.177,174.933,503.467,174.933z M409.6,157.867h85.333v-25.6H409.6
		V157.867z"/>
	<path style="fill:#4D007E;" d="M418.133,473.6H93.867c-4.71,0-8.533-3.823-8.533-8.533v-204.8c0-4.71,3.823-8.533,8.533-8.533
		h324.267c4.71,0,8.533,3.823,8.533,8.533v204.8C426.667,469.777,422.844,473.6,418.133,473.6z M102.4,456.533h307.2V268.8H102.4
		V456.533z"/>
	<path style="fill:#4D007E;" d="M426.667,507.733H256c-4.71,0-8.533-3.823-8.533-8.533v-34.133c0-4.71,3.823-8.533,8.533-8.533
		h170.667c4.71,0,8.533,3.823,8.533,8.533V499.2C435.2,503.91,431.377,507.733,426.667,507.733z M264.533,490.667h153.6V473.6
		h-153.6V490.667z"/>
	<path style="fill:#4D007E;" d="M435.2,268.8H76.8c-2.679,0-5.197-1.254-6.81-3.396s-2.133-4.907-1.391-7.484l17.067-59.733
		c1.041-3.661,4.386-6.187,8.201-6.187h324.267c3.814,0,7.159,2.526,8.201,6.187l17.067,59.733c0.734,2.577,0.222,5.342-1.391,7.484
		S437.879,268.8,435.2,268.8z M88.115,251.733h335.778l-12.194-42.667H100.301L88.115,251.733z"/>
	<path style="fill:#4D007E;" d="M503.467,507.733H8.533C3.823,507.733,0,503.91,0,499.2v-34.133c0-4.71,3.823-8.533,8.533-8.533
		h494.933c4.71,0,8.533,3.823,8.533,8.533V499.2C512,503.91,508.177,507.733,503.467,507.733z M17.067,490.667h477.867V473.6H17.067
		V490.667z"/>
	<path style="fill:#4D007E;" d="M264.533,439.467H128c-4.71,0-8.533-3.823-8.533-8.533V294.4c0-4.71,3.823-8.533,8.533-8.533
		h136.533c4.71,0,8.533,3.823,8.533,8.533v136.533C273.067,435.644,269.244,439.467,264.533,439.467z M136.533,422.4H256V302.933
		H136.533V422.4z"/>
	<path style="fill:#4D007E;" d="M384,473.6h-85.333c-4.71,0-8.533-3.823-8.533-8.533V294.4c0-4.71,3.823-8.533,8.533-8.533H384
		c4.71,0,8.533,3.823,8.533,8.533v170.667C392.533,469.777,388.71,473.6,384,473.6z M307.2,456.533h68.267v-153.6H307.2V456.533z"/>
	<path style="fill:#4D007E;" d="M358.4,388.267h-17.067c-4.71,0-8.533-3.823-8.533-8.533c0-4.71,3.823-8.533,8.533-8.533H358.4
		c4.71,0,8.533,3.823,8.533,8.533C366.933,384.444,363.11,388.267,358.4,388.267z"/>
	<path style="fill:#4D007E;" d="M119.467,268.8c-4.71,0-8.533-3.823-8.533-8.533V243.2c0-4.71,3.823-8.533,8.533-8.533
		c4.71,0,8.533,3.823,8.533,8.533v17.067C128,264.977,124.177,268.8,119.467,268.8z"/>
	<path style="fill:#4D007E;" d="M153.6,268.8c-4.71,0-8.533-3.823-8.533-8.533V243.2c0-4.71,3.823-8.533,8.533-8.533
		s8.533,3.823,8.533,8.533v17.067C162.133,264.977,158.31,268.8,153.6,268.8z"/>
	<path style="fill:#4D007E;" d="M187.733,268.8c-4.71,0-8.533-3.823-8.533-8.533V243.2c0-4.71,3.823-8.533,8.533-8.533
		c4.71,0,8.533,3.823,8.533,8.533v17.067C196.267,264.977,192.444,268.8,187.733,268.8z"/>
	<path style="fill:#4D007E;" d="M221.867,268.8c-4.71,0-8.533-3.823-8.533-8.533V243.2c0-4.71,3.823-8.533,8.533-8.533
		c4.71,0,8.533,3.823,8.533,8.533v17.067C230.4,264.977,226.577,268.8,221.867,268.8z"/>
	<path style="fill:#4D007E;" d="M256,268.8c-4.71,0-8.533-3.823-8.533-8.533V243.2c0-4.71,3.823-8.533,8.533-8.533
		c4.71,0,8.533,3.823,8.533,8.533v17.067C264.533,264.977,260.71,268.8,256,268.8z"/>
	<path style="fill:#4D007E;" d="M290.133,268.8c-4.71,0-8.533-3.823-8.533-8.533V243.2c0-4.71,3.823-8.533,8.533-8.533
		c4.71,0,8.533,3.823,8.533,8.533v17.067C298.667,264.977,294.844,268.8,290.133,268.8z"/>
	<path style="fill:#4D007E;" d="M324.267,268.8c-4.71,0-8.533-3.823-8.533-8.533V243.2c0-4.71,3.823-8.533,8.533-8.533
		s8.533,3.823,8.533,8.533v17.067C332.8,264.977,328.977,268.8,324.267,268.8z"/>
	<path style="fill:#4D007E;" d="M358.4,268.8c-4.71,0-8.533-3.823-8.533-8.533V243.2c0-4.71,3.823-8.533,8.533-8.533
		s8.533,3.823,8.533,8.533v17.067C366.933,264.977,363.11,268.8,358.4,268.8z"/>
	<path style="fill:#4D007E;" d="M392.533,268.8c-4.71,0-8.533-3.823-8.533-8.533V243.2c0-4.71,3.823-8.533,8.533-8.533
		s8.533,3.823,8.533,8.533v17.067C401.067,264.977,397.244,268.8,392.533,268.8z"/>
	<path style="fill:#4D007E;" d="M469.333,473.6H42.667c-4.71,0-8.533-3.823-8.533-8.533V166.4c0-4.71,3.823-8.533,8.533-8.533
		h426.667c4.71,0,8.533,3.823,8.533,8.533v298.667C477.867,469.777,474.044,473.6,469.333,473.6z M51.2,456.533h409.6v-281.6H51.2
		V456.533z"/>
	<path style="fill:#4D007E;" d="M401.067,174.933H110.933c-4.71,0-8.533-3.823-8.533-8.533V12.8c0-4.71,3.823-8.533,8.533-8.533
		h290.133c4.71,0,8.533,3.823,8.533,8.533v153.6C409.6,171.11,405.777,174.933,401.067,174.933z M119.467,157.867h273.067V21.333
		H119.467V157.867z"/>
	<path style="fill:#4D007E;" d="M247.467,140.8c-28.228,0-51.2-22.963-51.2-51.2V46.933c0-4.71,3.823-8.533,8.533-8.533h85.333
		c4.71,0,8.533,3.823,8.533,8.533V89.6C298.667,117.837,275.695,140.8,247.467,140.8z M213.333,55.467V89.6
		c0,18.825,15.309,34.133,34.133,34.133S281.6,108.425,281.6,89.6V55.467H213.333z"/>
	<path style="fill:#4D007E;" d="M290.133,98.133c-4.71,0-8.533-3.823-8.533-8.533V46.933c0-4.71,3.823-8.533,8.533-8.533H332.8
		c4.71,0,8.533,3.823,8.533,8.533C341.333,75.17,318.362,98.133,290.133,98.133z M298.667,55.467v24.525
		c11.981-3.098,21.427-12.544,24.525-24.525C323.191,55.467,298.667,55.467,298.667,55.467z"/>
	<path style="fill:#4D007E;" d="M307.2,140.8H187.733c-4.71,0-8.533-3.823-8.533-8.533s3.823-8.533,8.533-8.533H307.2
		c4.71,0,8.533,3.823,8.533,8.533S311.91,140.8,307.2,140.8z"/>
	<path style="fill:#4D007E;" d="M110.933,132.267H25.6c-4.71,0-8.533-3.823-8.533-8.533V55.433
		c0-14.097,11.469-25.566,25.566-25.566h68.301c4.71,0,8.533,3.823,8.533,8.533v85.333
		C119.467,128.444,115.644,132.267,110.933,132.267z M34.133,115.2H102.4V46.933H42.633c-4.685,0-8.499,3.814-8.499,8.499V115.2z"/>
	<path style="fill:#4D007E;" d="M486.4,132.267h-85.333c-4.71,0-8.533-3.823-8.533-8.533V38.4c0-4.71,3.823-8.533,8.533-8.533
		h68.301c14.097,0,25.566,11.469,25.566,25.566v68.301C494.933,128.444,491.11,132.267,486.4,132.267z M409.6,115.2h68.267V55.433
		c0-4.685-3.814-8.499-8.499-8.499H409.6V115.2z"/>
	<path style="fill:#4D007E;" d="M196.267,439.467c-4.71,0-8.533-3.823-8.533-8.533V396.8c0-4.71,3.823-8.533,8.533-8.533
		s8.533,3.823,8.533,8.533v34.133C204.8,435.644,200.977,439.467,196.267,439.467z"/>
	<path style="fill:#4D007E;" d="M230.4,405.333h-68.267c-4.71,0-8.533-3.823-8.533-8.533s3.823-8.533,8.533-8.533H230.4
		c4.71,0,8.533,3.823,8.533,8.533S235.11,405.333,230.4,405.333z"/>
	<path style="fill:#4D007E;" d="M221.867,337.067h-51.2c-4.71,0-8.533-3.823-8.533-8.533V294.4c0-4.71,3.823-8.533,8.533-8.533h51.2
		c4.71,0,8.533,3.823,8.533,8.533v34.133C230.4,333.244,226.577,337.067,221.867,337.067z M179.2,320h34.133v-17.067H179.2V320z"/>
	<path style="fill:#4D007E;" d="M162.133,371.2c-4.71,0-8.533-3.823-8.533-8.533s3.823-8.533,8.533-8.533
		c14.114,0,25.6-11.486,25.6-25.6c0-4.71,3.823-8.533,8.533-8.533s8.533,3.823,8.533,8.533C204.8,352.06,185.66,371.2,162.133,371.2
		z"/>
	<path style="fill:#4D007E;" d="M230.4,371.2c-23.526,0-42.667-19.14-42.667-42.667c0-4.71,3.823-8.533,8.533-8.533
		s8.533,3.823,8.533,8.533c0,14.114,11.486,25.6,25.6,25.6c4.71,0,8.533,3.823,8.533,8.533S235.11,371.2,230.4,371.2z"/>
</g>
<g>
</g>
<g>
</g>
<g>
</g>
<g>
</g>
<g>
</g>
<g>
</g>
<g>
</g>
<g>
</g>
<g>
</g>
<g>
</g>
<g>
</g>
<g>
</g>
<g>
</g>
<g>
</g>
<g>
</g>
</svg>
